<?xml version="1.0" encoding="UTF-8" standalone="no"?><svg xmlns="http://www.w3.org/2000/svg" xmlns:xlink="http://www.w3.org/1999/xlink" contentScriptType="application/ecmascript" contentStyleType="text/css" height="414px" preserveAspectRatio="none" style="width:188px;height:414px;" version="1.1" viewBox="0 0 188 414" width="188px" zoomAndPan="magnify"><defs><filter height="300%" id="f1gzrwcmmwrye2" width="300%" x="-1" y="-1"><feGaussianBlur result="blurOut" stdDeviation="2.0"/><feColorMatrix in="blurOut" result="blurOut2" type="matrix" values="0 0 0 0 0 0 0 0 0 0 0 0 0 0 0 0 0 0 .4 0"/><feOffset dx="4.0" dy="4.0" in="blurOut2" result="blurOut3"/><feBlend in="SourceGraphic" in2="blurOut3" mode="normal"/></filter></defs><g><ellipse cx="93.5" cy="20" fill="#000000" filter="url(#f1gzrwcmmwrye2)" rx="10" ry="10" style="stroke: none; stroke-width: 1.0;"/><rect fill="#FEFECE" filter="url(#f1gzrwcmmwrye2)" height="33.9688" rx="12.5" ry="12.5" style="stroke: #A80036; stroke-width: 1.5;" width="167" x="10" y="50"/><text fill="#000000" font-family="sans-serif" font-size="12" lengthAdjust="spacingAndGlyphs" textLength="147" x="20" y="71.1387">Receive Kafka message</text><rect fill="#FEFECE" filter="url(#f1gzrwcmmwrye2)" height="33.9688" rx="12.5" ry="12.5" style="stroke: #A80036; stroke-width: 1.5;" width="67" x="60" y="152.3711"/><text fill="#000000" font-family="sans-serif" font-size="12" lengthAdjust="spacingAndGlyphs" textLength="47" x="70" y="173.5098">Discard</text><ellipse cx="93.5" cy="223.8555" fill="none" filter="url(#f1gzrwcmmwrye2)" rx="10" ry="10" style="stroke: #000000; stroke-width: 1.0;"/><ellipse cx="94" cy="224.3555" fill="#000000" filter="url(#f1gzrwcmmwrye2)" rx="6" ry="6" style="stroke: none; stroke-width: 1.0;"/><polygon fill="#FEFECE" filter="url(#f1gzrwcmmwrye2)" points="53.5,103.9688,133.5,103.9688,145.5,115.9688,133.5,127.9688,53.5,127.9688,41.5,115.9688,53.5,103.9688" style="stroke: #A80036; stroke-width: 1.5;"/><text fill="#000000" font-family="sans-serif" font-size="11" lengthAdjust="spacingAndGlyphs" textLength="14" x="97.5" y="138.1792">no</text><text fill="#000000" font-family="sans-serif" font-size="11" lengthAdjust="spacingAndGlyphs" textLength="80" x="53.5" y="119.7769">match where?</text><text fill="#000000" font-family="sans-serif" font-size="11" lengthAdjust="spacingAndGlyphs" textLength="20" x="145.5" y="113.3745">yes</text><rect fill="#FEFECE" filter="url(#f1gzrwcmmwrye2)" height="33.9688" rx="12.5" ry="12.5" style="stroke: #A80036; stroke-width: 1.5;" width="88" x="49.5" y="275.8555"/><text fill="#000000" font-family="sans-serif" font-size="12" lengthAdjust="spacingAndGlyphs" textLength="68" x="59.5" y="296.9941">Filter fields</text><rect fill="#FEFECE" filter="url(#f1gzrwcmmwrye2)" height="33.9688" rx="12.5" ry="12.5" style="stroke: #A80036; stroke-width: 1.5;" width="107" x="40" y="329.8242"/><text fill="#000000" font-family="sans-serif" font-size="12" lengthAdjust="spacingAndGlyphs" textLength="87" x="50" y="350.9629">Send to client</text><ellipse cx="93.5" cy="393.793" fill="none" filter="url(#f1gzrwcmmwrye2)" rx="10" ry="10" style="stroke: #000000; stroke-width: 1.0;"/><ellipse cx="94" cy="394.293" fill="#000000" filter="url(#f1gzrwcmmwrye2)" rx="6" ry="6" style="stroke: none; stroke-width: 1.0;"/><line style="stroke: #A80036; stroke-width: 1.5;" x1="93.5" x2="93.5" y1="30" y2="50"/><polygon fill="#A80036" points="89.5,40,93.5,50,97.5,40,93.5,44" style="stroke: #A80036; stroke-width: 1.0;"/><line style="stroke: #A80036; stroke-width: 1.5;" x1="93.5" x2="93.5" y1="186.3398" y2="213.8555"/><polygon fill="#A80036" points="89.5,203.8555,93.5,213.8555,97.5,203.8555,93.5,207.8555" style="stroke: #A80036; stroke-width: 1.0;"/><line style="stroke: #A80036; stroke-width: 1.5;" x1="93.5" x2="93.5" y1="127.9688" y2="152.3711"/><polygon fill="#A80036" points="89.5,142.3711,93.5,152.3711,97.5,142.3711,93.5,146.3711" style="stroke: #A80036; stroke-width: 1.0;"/><line style="stroke: #A80036; stroke-width: 1.5;" x1="145.5" x2="157.5" y1="115.9688" y2="115.9688"/><polygon fill="#A80036" points="153.5,183.8555,157.5,193.8555,161.5,183.8555,157.5,187.8555" style="stroke: #A80036; stroke-width: 1.5;"/><line style="stroke: #A80036; stroke-width: 1.5;" x1="157.5" x2="157.5" y1="115.9688" y2="255.8555"/><line style="stroke: #A80036; stroke-width: 1.5;" x1="157.5" x2="93.5" y1="255.8555" y2="255.8555"/><line style="stroke: #A80036; stroke-width: 1.5;" x1="93.5" x2="93.5" y1="255.8555" y2="275.8555"/><polygon fill="#A80036" points="89.5,265.8555,93.5,275.8555,97.5,265.8555,93.5,269.8555" style="stroke: #A80036; stroke-width: 1.0;"/><line style="stroke: #A80036; stroke-width: 1.5;" x1="93.5" x2="93.5" y1="83.9688" y2="103.9688"/><polygon fill="#A80036" points="89.5,93.9688,93.5,103.9688,97.5,93.9688,93.5,97.9688" style="stroke: #A80036; stroke-width: 1.0;"/><line style="stroke: #A80036; stroke-width: 1.5;" x1="93.5" x2="93.5" y1="309.8242" y2="329.8242"/><polygon fill="#A80036" points="89.5,319.8242,93.5,329.8242,97.5,319.8242,93.5,323.8242" style="stroke: #A80036; stroke-width: 1.0;"/><line style="stroke: #A80036; stroke-width: 1.5;" x1="93.5" x2="93.5" y1="363.793" y2="383.793"/><polygon fill="#A80036" points="89.5,373.793,93.5,383.793,97.5,373.793,93.5,377.793" style="stroke: #A80036; stroke-width: 1.0;"/><!--
@startuml
start

:Receive Kafka message;

if (match where?) then (yes)
else (no)
  :Discard;
  stop
endif

:Filter fields;
:Send to client;

stop
@enduml

PlantUML version 1.2017.15(Mon Jul 03 13:45:34 BRT 2017)
(GPL source distribution)
Java Runtime: OpenJDK Runtime Environment
JVM: OpenJDK 64-Bit Server VM
Java Version: 11.0.7+10-post-Ubuntu-2ubuntu218.04
Operating System: Linux
OS Version: 4.15.0-106-generic
Default Encoding: UTF-8
Language: en
Country: US
--></g></svg>